<?xml version="1.0" encoding="UTF-8"?>
<svg id="Capa_2" data-name="Capa 2" xmlns="http://www.w3.org/2000/svg" viewBox="0 0 404.73 117.14">
  <defs>
    <style>
      .cls-1 {
        fill: #2c2420;
      }
    </style>
  </defs>
  <g id="Capa_1-2" data-name="Capa 1">
    <g>
      <path class="cls-1" d="M0,3.95h11.17v14.18C16.08,8.07,25.58,1.89,36.91,1.89c19.96,0,32.79,18.85,32.79,42.14,0,25.03-13.86,42.61-33.51,42.61-11.56,0-20.36-6.97-24.63-15.21v45.7H0V3.95ZM57.98,44.11c0-17.27-8.16-31.84-23.05-31.84s-23.37,14.65-23.37,31.13v2.3c0,15.92,9.03,30.58,23.37,30.58,15.13,0,23.05-14.81,23.05-32.16Z"/>
      <path class="cls-1" d="M82.28,3.95h11.17v14.26c4.28-9.9,11.56-15.52,21.31-15.52,2.22,0,4.75.32,6.34.87v11.33c-1.74-.55-4.2-.79-6.5-.79-12.91,0-20.75,10.93-20.75,23.21v47.29h-11.56V3.95Z"/>
      <path class="cls-1" d="M128.79,44.27c0-25.19,14.5-42.38,36.28-42.38s36.28,17.19,36.28,42.38-14.57,42.38-36.28,42.38-36.28-17.19-36.28-42.38ZM189.55,44.27c0-18.93-9.74-32-24.48-32s-24.48,13.15-24.48,32,9.74,32,24.48,32,24.48-13.15,24.48-32Z"/>
      <path class="cls-1" d="M324.31,58.63l-4,11.7c-3.84,11-10.31,16.5-19.38,16.5-4.81,0-8.12-1.44-9.93-4.33-.96-1.6-1.44-3.47-1.44-5.61,0-2.88.91-7.05,2.72-12.5l15.22-45.82c1.07-3.2,1.6-6.03,1.6-8.49,0-3.31-1.18-4.97-3.52-4.97-6.09,0-12.95,6.97-20.59,20.91-7.64,13.94-15.03,32.39-22.19,55.35l.16-.96-1.12,4.17h-14.42l20.03-66c1.07-3.2,1.6-5.93,1.6-8.17,0-3.52-1.5-5.29-4.49-5.29-3.95,0-8.39,3.12-13.3,9.37-4.91,6.25-9.75,14.77-14.5,25.55-4.75,10.79-8.89,22.7-12.42,35.73l-2.24,8.81h-13.94l19.22-68.73c.75-2.99,1.12-4.97,1.12-5.93,0-2.67-1.12-4.01-3.36-4.01s-4.51,1.26-6.49,3.77c-1.98,2.51-3.98,6.7-6.01,12.58l-2.08,5.93h-3.04l4-11.69c3.84-11,10.31-16.5,19.38-16.5,6.19,0,9.29,3.2,9.29,9.61,0,2.78-.8,7.05-2.4,12.82l-5.13,20.35c6.41-15.59,12.44-26.62,18.1-33.08,5.66-6.46,12.02-9.69,19.06-9.69s10.57,3.74,10.57,11.21c0,3.31-.75,7.64-2.24,12.98l-5.77,21.47c4.49-11.21,8.7-20.11,12.66-26.67,3.95-6.57,7.98-11.37,12.1-14.42,4.11-3.04,8.68-4.57,13.7-4.57,7.47,0,11.21,4,11.21,12.01,0,3.42-.75,7.48-2.24,12.18l-15.54,46.78c-.86,2.78-1.28,4.81-1.28,6.09,0,2.56,1.28,3.84,3.85,3.84,2.13,0,4.19-1.2,6.17-3.6,1.97-2.4,4.03-6.65,6.17-12.74l2.08-5.93h3.04Z"/>
      <path class="cls-1" d="M334.79,65.19c0-15.96,13.06-21.2,26.83-24.02,14-2.89,24.49-4.93,24.49-14.39,0-7.82-7.67-13.61-18.31-13.61-10.09,0-18.38,5.63-19.01,14h-11.58c.47-14.08,13.61-24.25,31.06-24.25s29.26,9.07,29.26,25.11v42.01c0,3.52,1.33,5.32,4.38,5.32,1.09,0,1.96-.16,2.82-.39v9.54c-1.1.47-3.21,1.09-5.71,1.09-6.88,0-11.66-4.69-11.81-14.79-4.85,7.9-14.47,15.8-28.71,15.8-13.38,0-23.7-7.51-23.7-21.44ZM386.12,59.4v-19.87c-5.08,6.02-11.81,7.75-23.08,10.48-11.34,2.74-16.58,6.34-16.58,14.16,0,9.23,6.65,12.28,13.53,12.28,10.01,0,20.34-5.79,26.13-17.05Z"/>
    </g>
  </g>
</svg>