<?xml version="1.0" encoding="UTF-8"?>
<svg id="Capa_2" data-name="Capa 2" xmlns="http://www.w3.org/2000/svg" viewBox="0 0 32 19.6">
  <defs>
    <style>
      .cls-1 {
        fill: #2c2420;
      }
    </style>
  </defs>
  <g id="Capa_1-2" data-name="Capa 1">
    <g>
      <path class="cls-1" d="M0,.65h1.87v2.37C2.69,1.34,4.28.31,6.18.31c3.34,0,5.49,3.16,5.49,7.05,0,4.19-2.32,7.13-5.61,7.13-1.94,0-3.41-1.17-4.12-2.55v7.65H0V.65ZM9.71,7.38c0-2.89-1.37-5.33-3.86-5.33S1.94,4.5,1.94,7.26v.38c0,2.67,1.51,5.12,3.91,5.12,2.53,0,3.86-2.48,3.86-5.38Z"/>
      <path class="cls-1" d="M32,9.81l-.67,1.96c-.64,1.84-1.72,2.76-3.24,2.76-.8,0-1.36-.24-1.66-.72-.16-.27-.24-.58-.24-.94,0-.48.15-1.18.46-2.09l2.55-7.67c.18-.54.27-1.01.27-1.42,0-.55-.2-.83-.59-.83-1.02,0-2.17,1.17-3.44,3.5s-2.52,5.42-3.71,9.26l.03-.16-.19.7h-2.41l3.35-11.04c.18-.54.27-.99.27-1.37,0-.59-.25-.88-.75-.88-.66,0-1.4.52-2.22,1.57-.82,1.04-1.63,2.47-2.43,4.28s-1.49,3.8-2.08,5.98l-.38,1.47h-2.33l3.22-11.5c.12-.5.19-.83.19-.99,0-.45-.19-.67-.56-.67-.39,0-.76.21-1.09.63-.33.42-.67,1.12-1,2.1l-.35.99h-.51l.67-1.96c.64-1.84,1.72-2.76,3.24-2.76,1.04,0,1.55.54,1.55,1.61,0,.46-.13,1.18-.4,2.14l-.86,3.4c1.07-2.61,2.08-4.45,3.03-5.53s2.01-1.62,3.19-1.62,1.77.63,1.77,1.88c0,.55-.13,1.28-.38,2.17l-.96,3.59c.75-1.88,1.46-3.36,2.12-4.46.66-1.1,1.33-1.9,2.02-2.41.69-.51,1.45-.76,2.29-.76,1.25,0,1.88.67,1.88,2.01,0,.57-.12,1.25-.38,2.04l-2.6,7.83c-.14.46-.21.8-.21,1.02,0,.43.21.64.64.64.36,0,.7-.2,1.03-.6s.67-1.11,1.03-2.13l.35-.99h.51Z"/>
    </g>
  </g>
</svg>